<svg data-v-fde0c5aa="" xmlns="http://www.w3.org/2000/svg" viewBox="0 0 300 300" class="iconLeft"><!----><defs data-v-fde0c5aa=""><linearGradient data-v-fde0c5aa="" gradientTransform="rotate(25)" id="acf60bf5-7246-4b2a-890b-ffcbb61879fe" x1="0%" y1="0%" x2="100%" y2="0%"><stop data-v-fde0c5aa="" offset="0%" stop-color="#01648B" stop-opacity="1"></stop><stop data-v-fde0c5aa="" offset="100%" stop-color="#5BD0A4" stop-opacity="1"></stop></linearGradient></defs><rect data-v-fde0c5aa="" fill="url(#acf60bf5-7246-4b2a-890b-ffcbb61879fe)" x="0" y="0" width="300px" height="300px" class="logo-background-square"></rect><defs data-v-fde0c5aa=""><!----></defs><g data-v-fde0c5aa="" id="bc6919eb-683d-4801-a335-f490d3e53898" fill="#ffffff" transform="matrix(3.432551072139905,0,0,3.432551072139905,100.79827269748743,123.03731126287033)"><path d="M10.73 12.67L8.93 12.67L8.93 6.84L8.93 6.84Q8.93 6.64 8.94 6.44L8.94 6.44L8.94 6.44Q8.94 6.24 9.00 4.74L9.00 4.74L9.00 4.74Q8.52 6.58 8.29 7.30L8.29 7.30L6.55 12.67L5.11 12.67L3.38 7.30L2.65 4.74L2.65 4.74Q2.73 6.32 2.73 6.84L2.73 6.84L2.73 12.67L0.94 12.67L0.94 3.04L3.64 3.04L5.36 8.43L5.51 8.95L5.84 10.24L6.27 8.70L8.04 3.04L10.73 3.04L10.73 12.67ZM20.83 12.67L18.46 12.67L14.27 5.26L14.27 5.26Q14.39 6.34 14.39 6.99L14.39 6.99L14.39 12.67L12.60 12.67L12.60 3.04L14.90 3.04L19.16 10.52L19.16 10.52Q19.04 9.49 19.04 8.64L19.04 8.64L19.04 3.04L20.83 3.04L20.83 12.67ZM24.73 12.67L22.71 12.67L22.71 3.04L24.73 3.04L24.73 12.67ZM31.17 11.23L31.17 11.23L31.17 11.23Q31.96 11.23 32.70 11.00L32.70 11.00L32.70 11.00Q33.43 10.77 33.84 10.42L33.84 10.42L33.84 9.08L31.49 9.08L31.49 7.59L35.68 7.59L35.68 11.14L35.68 11.14Q34.92 11.92 33.69 12.37L33.69 12.37L33.69 12.37Q32.46 12.81 31.12 12.81L31.12 12.81L31.12 12.81Q28.77 12.81 27.50 11.51L27.50 11.51L27.50 11.51Q26.24 10.21 26.24 7.81L26.24 7.81L26.24 7.81Q26.24 5.43 27.51 4.17L27.51 4.17L27.51 4.17Q28.78 2.90 31.17 2.90L31.17 2.90L31.17 2.90Q34.56 2.90 35.48 5.41L35.48 5.41L33.62 5.97L33.62 5.97Q33.32 5.24 32.68 4.86L32.68 4.86L32.68 4.86Q32.03 4.48 31.17 4.48L31.17 4.48L31.17 4.48Q29.74 4.48 29.00 5.35L29.00 5.35L29.00 5.35Q28.27 6.21 28.27 7.81L28.27 7.81L28.27 7.81Q28.27 9.45 29.03 10.34L29.03 10.34L29.03 10.34Q29.79 11.23 31.17 11.23ZM46.38 12.67L44.11 12.67L41.87 9.02L39.50 9.02L39.50 12.67L37.49 12.67L37.49 3.04L42.30 3.04L42.30 3.04Q44.02 3.04 44.96 3.78L44.96 3.78L44.96 3.78Q45.90 4.53 45.90 5.91L45.90 5.91L45.90 5.91Q45.90 6.92 45.32 7.66L45.32 7.66L45.32 7.66Q44.75 8.39 43.77 8.63L43.77 8.63L46.38 12.67ZM43.87 6.00L43.87 6.00L43.87 6.00Q43.87 4.61 42.09 4.61L42.09 4.61L39.50 4.61L39.50 7.45L42.14 7.45L42.14 7.45Q42.99 7.45 43.43 7.07L43.43 7.07L43.43 7.07Q43.87 6.69 43.87 6.00Z"></path></g><defs data-v-fde0c5aa=""><!----></defs><g data-v-fde0c5aa="" id="5fdb64d6-3b77-41c8-a8b2-0fdb07ca3e97" stroke="none" fill="#ffffff" transform="matrix(1.5945272156784718,0,0,1.5945272156784718,40,124.48756454914445)"><path d="M9.663 12.988L12.675 16l-6.338 6.337 3.326 3.326L16 19.325l3.012 3.012-6.337 6.338L16 32l6.337-6.337 3.326-3.326L32 16l-3.325-3.325-6.338 6.337L19.325 16l6.338-6.337-3.326-3.326L16 12.675l-3.012-3.012 6.337-6.338L16 0 9.663 6.337 6.337 9.663 0 16l3.325 3.325z"></path></g><!----></svg>